HIERARCHY
ROOT Hips
{
  OFFSET 0 90 0
  CHANNELS 6 Xposition Yposition Zposition Zrotation Xrotation Yrotation
  JOINT Spine
  {
    OFFSET 0 10 0
    CHANNELS 3 Zrotation Xrotation Yrotation
    JOINT Neck
    {
      OFFSET 0 30 0
      CHANNELS 3 Zrotation Xrotation Yrotation
      JOINT Head
      {
        OFFSET 0 8 0
        CHANNELS 3 Zrotation Xrotation Yrotation
        End Site
        {
          OFFSET 0 10 0
        }
      }
      JOINT LeftArm
      {
        OFFSET 15 0 0
        CHANNELS 3 Zrotation Xrotation Yrotation
        JOINT LeftForeArm
        {
          OFFSET 25 0 0
          CHANNELS 3 Zrotation Xrotation Yrotation
          JOINT LeftHand
          {
            OFFSET 25 0 0
            CHANNELS 3 Zrotation Xrotation Yrotation
            End Site
            {
              OFFSET 10 0 0
            }
          }
        }
      }
      JOINT RightArm
      {
        OFFSET -15 0 0
        CHANNELS 3 Zrotation Xrotation Yrotation
        JOINT RightForeArm
        {
          OFFSET -25 0 0
          CHANNELS 3 Zrotation Xrotation Yrotation
          JOINT RightHand
          {
            OFFSET -25 0 0
            CHANNELS 3 Zrotation Xrotation Yrotation
            End Site
            {
              OFFSET -15 0 0
            }
          }
        }
      }
    }
  }
  JOINT LeftUpLeg
  {
    OFFSET 10 -10 0
    CHANNELS 3 Zrotation Xrotation Yrotation
    JOINT LeftLeg
    {
      OFFSET 0 -35 0
      CHANNELS 3 Zrotation Xrotation Yrotation
      JOINT LeftFoot
      {
        OFFSET 0 -40 0
        CHANNELS 3 Zrotation Xrotation Yrotation
        End Site
        {
          OFFSET 0 0 15
        }
      }
    }
  }
  JOINT RightUpLeg
  {
    OFFSET -10 -10 0
    CHANNELS 3 Zrotation Xrotation Yrotation
    JOINT RightLeg
    {
      OFFSET 0 -35 0
      CHANNELS 3 Zrotation Xrotation Yrotation
      JOINT RightFoot
      {
        OFFSET 0 -40 0
        CHANNELS 3 Zrotation Xrotation Yrotation
        End Site
        {
          OFFSET 0 0 15
        }
      }
    }
  }
}
MOTION
Frames:	18
Frame Time:	0.0333333
53.585 87.7803 -194.505 -1.36398 12.0499 6.98121 2.43713 1.25509 -12.2415 -2.63166 -15.0387 -0.546795 3.8588 -3.62657 7.58766 -75.591 70.1841 12.1873 34.5492 -38.4392 -91.8249 -0.166802 -33.8519 -0.0322159 115.885 21.31 -63.7463 -30.8652 -21.4163 68.2802 0.336774 -13.976 -0.720839 1.6528 10.0372 -4.54565 -1.46611 25.5343 0.379959 -17.4716 49.2948 14.8768 2.78818 -47.484 2.7284 3.79035 48.4713 -1.79784 -1.99115 -15.9385 -16.0083 
53.4989 88.0815 -186.449 1.0789 11.6836 6.28549 0.338363 1.36274 -11.6099 -2.44291 -15.808 -0.404468 2.3655 -2.0229 7.44755 -93.9202 72.2314 31.5368 35.1978 -36.8657 -89.0151 -0.163439 -33.2185 -0.00109565 115.386 21.5447 -60.5324 -31.4605 -22.0199 68.9459 0.286407 -12.7479 -0.80562 -0.888939 9.1681 -2.52679 -0.421114 34.0869 -0.0915765 -13.2153 43.4389 10.7375 0.186379 -44.6791 1.59475 3.41044 40.7056 -0.870612 -1.75105 -16.0737 -14.082 
53.3748 87.4914 -179.088 2.24683 10.6352 3.88095 -0.344872 2.80208 -9.73005 -1.76919 -15.8743 0.175508 0.797986 -2.4617 7.1284 -111.692 69.0767 49.2205 35.722 -34.9715 -85.9038 -0.129151 -30.7464 0.109 113.222 24.9899 -53.8779 -32.2117 -23.1028 70.1418 0.237076 -12.0366 -0.870214 -2.36136 3.12485 0.131922 1.37426 52.1842 -0.762113 -11.5604 37.4819 9.82215 1.10382 -41.0565 1.55492 3.06025 39.8689 -0.360768 -1.18316 -14.6011 -14.4742 
53.3359 85.8216 -171.999 0.27488 8.57354 1.38158 2.63402 5.12336 -7.12417 -1.70829 -14.6791 0.986497 -0.206203 -5.03091 6.2713 -118.312 64.5648 56.7757 35.8729 -32.271 -81.9226 -0.186934 -31.9881 0.143532 107.073 31.7675 -42.6526 -33.0394 -24.7398 71.9545 0.214192 -12.1745 -0.910101 0.874093 -4.33259 2.85649 3.45556 73.6988 -2.31492 -10.9475 27.4142 11.7707 5.50757 -35.518 2.13766 2.49156 42.4821 0.278676 -1.3675 -15.9396 -10.2891 
53.2226 84.0179 -165.181 -1.91132 6.4513 -3.0934 5.45649 9.31484 -3.79209 -2.39081 -11.5759 2.83221 0.588704 -12.4144 7.12312 -113.136 60.7998 53.2985 35.2298 -28.1809 -76.3014 -0.304474 -29.6625 0.129652 93.2054 39.5452 -21.6977 -33.725 -26.8239 74.0791 0.21467 -11.7071 -0.89131 5.96798 -13.5447 6.83462 176.458 85.9544 -175.551 -7.55941 19.3582 9.56011 11.4514 -31.0894 6.92241 1.74794 47.6275 0.802987 -2.4554 -20.6258 -9.71251 
53.1045 83.0002 -158.024 -3.62541 6.1707 -8.95709 7.7098 11.4236 0.391629 -2.99587 -11.9205 4.72859 0.323874 -12.869 7.87319 -114.941 53.7725 59.0648 33.7498 -25.2079 -72.6572 -0.376213 -29.6756 0.0780163 76.4996 43.77 -1.52928 -34.2297 -29.0447 76.277 0.230795 -8.64677 -0.882359 12.8485 -23.9058 12.9281 -177.729 72.4872 178.237 -4.96304 11.0107 8.14092 14.1189 -25.8226 8.48127 1.15879 49.8536 1.35697 -2.64732 -24.7353 -6.36252 
52.8864 83.133 -150.406 -2.46572 6.52498 -12.4876 6.6248 11.4762 2.81006 -3.06336 -10.4583 5.57961 0.83601 -15.2065 7.71894 -113.878 46.7345 61.6378 32.4446 -23.4963 -70.5728 -0.500541 -30.216 -0.114714 61.5584 43.4799 16.0865 -34.4857 -31.9888 79.9308 0.23422 -5.97693 -0.868596 15.5738 -34.7196 16.5047 -176.763 67.8084 177.137 -3.47661 5.21152 8.62657 12.6676 -20.3475 10.1244 0.814471 49.9018 1.83199 -2.93723 -28.0237 -5.59356 
52.7425 84.3411 -142.3 -1.09259 7.20771 -13.6507 5.67835 10.0428 4.71883 -4.83505 -10.4497 5.35645 3.34888 -14.5298 6.67712 -112.377 41.3902 65.2216 31.4567 -22.3725 -69.0269 -0.430457 -28.1975 -0.132472 54.9392 42.3454 24.71 -34.1685 -34.8871 84.3307 0.364612 -5.90806 -0.797899 13.397 -44.575 15.1514 -175.021 72.183 175.72 -3.58087 4.42655 11.7493 9.85244 -12.0672 11.8155 0.750402 44.1227 2.40902 -2.48937 -25.5005 -6.47094 
52.5606 86.6893 -133.464 -0.0604357 8.22624 -13.296 5.13101 7.83631 5.90051 -5.36822 -10.7371 4.84165 3.67049 -13.9159 4.93445 -112.101 35.7442 67.8082 30.9798 -22.0762 -68.7794 -0.46415 -30.0396 -0.212827 53.3807 42.7424 25.6717 -33.6561 -37.5558 89.174 0.412508 -10.2321 -0.753014 8.03624 -50.5274 8.94575 -164.143 84.1145 164.968 -2.78336 3.16114 11.3332 6.7835 -4.26137 12.474 0.859549 37.1857 2.83607 -0.492995 -16.7828 -6.2414 
52.3116 89.2459 -124.351 -0.175749 8.65335 -12.149 5.44618 6.39508 6.10248 -6.16544 -12.271 4.0014 4.77308 -10.8467 3.58234 -111.29 30.0985 69.1099 30.9879 -22.2198 -69.1682 -0.470866 -30.2928 -0.223675 57.3081 45.8846 21.1097 -33.2488 -39.6144 93.2873 0.409732 -11.5554 -0.754477 4.25539 -49.4222 4.18818 -6.2738 76.9158 6.99721 -2.35909 2.14026 11.1704 4.11584 2.98222 9.69891 0.865338 30.3393 3.02814 2.37349 -0.601856 -4.37409 
51.9121 91.8343 -114.858 -0.873137 8.56793 -12.2296 5.97169 5.62907 7.13166 -7.55415 -14.0577 3.63381 7.28907 -7.63137 3.05601 -109.666 25.1181 69.2349 31.2692 -22.7295 -69.9971 -0.451189 -30.6858 -0.178653 65.4638 49.7002 11.946 -33.3927 -39.5732 93.4272 0.447471 -7.16541 -0.7624 4.3481 -43.1872 3.68805 -2.4142 53.6855 2.35783 -2.49227 3.72443 10.0085 2.24976 10.0154 7.66572 0.752104 23.1275 2.77794 5.07078 15.0229 -5.61129 
51.4511 92.8487 -105.589 -1.82449 8.76184 -12.8724 6.79791 4.05323 7.82869 -7.09973 -13.8407 3.72664 7.10109 -5.66475 2.68328 -109.15 21.4776 66.7352 31.8827 -23.65 -71.3299 -0.397894 -31.1398 -0.0647706 72.2983 52.4882 2.71007 -33.7163 -39.1536 92.9284 0.338427 -11.5626 -0.774529 5.32943 -35.9886 3.29271 -2.32127 31.6681 0.957457 -2.05418 4.8737 8.7977 2.14667 13.8453 8.24846 0.170232 22.3753 2.54667 6.60374 16.8314 -9.0639 
51.0182 92.8981 -96.553 -3.33523 8.02319 -13.1152 7.88337 4.1538 8.11598 -6.59766 -13.8575 3.86573 6.95312 -5.0694 2.68424 -108.57 19.757 62.4052 32.4735 -24.7358 -72.6384 -0.339548 -30.1231 0.0490965 81.0665 53.9051 -8.92059 -34.3143 -37.2691 89.7503 0.252365 -13.2068 -0.790613 5.69595 -28.3257 1.78588 -2.12574 16.8161 0.159195 -1.85109 4.91877 9.88942 3.04138 14.6508 8.88321 -0.448226 28.3243 2.25983 7.54245 14.6784 -13.5284 
50.6612 91.935 -88.135 -4.72161 6.66346 -12.0428 8.80087 5.67894 7.2499 -6.52414 -12.9479 3.80571 6.49934 -7.22398 2.60976 -107.491 21.2913 55.4446 32.9279 -26.061 -74.3265 -0.26288 -29.4904 0.131305 89.319 52.9962 -18.9092 -34.8232 -34.7701 85.5847 0.182484 -13.7466 -0.856839 5.18731 -23.2374 2.29701 -1.94567 13.8976 -0.217175 -1.24877 3.56952 10.2188 5.01044 10.1872 9.15961 -1.31229 42.5607 2.49792 6.02428 11.7652 -12.0679 
50.4442 89.608 -80.0168 -3.54633 5.54644 -9.72788 6.79536 6.31475 4.86873 -5.21633 -12.6445 3.28636 5.12977 -8.02893 2.64568 -106.363 24.941 47.59 33.3816 -28.0728 -77.1464 -0.283116 -28.0222 0.153806 96.7979 50.9997 -29.3719 -35.0497 -31.199 80.1775 0.129551 -13.9031 -0.895258 1.82623 -20.5581 2.18245 -1.77996 17.8565 -0.910357 0.583694 1.77189 3.27627 4.39925 0.83123 6.65505 -2.50016 62.1628 3.17418 4.29656 7.52132 -9.76187 
50.1039 87.0875 -72.2448 -0.504245 4.45956 -6.58735 2.13472 8.04424 2.0238 -5.3801 -11.7834 2.3127 6.99674 -12.4385 3.14524 -99.1719 33.2443 35.3809 33.7216 -30.7069 -80.979 -0.231517 -27.2312 0.139488 102.769 46.9147 -36.489 -34.3585 -26.9628 74.7292 0.0751371 -13.3519 -0.900072 -4.33517 -20.5057 -0.349912 -1.12213 27.4699 -1.43283 1.68516 -5.41937 2.67274 1.03273 -10.3397 4.04237 -4.74722 82.1148 5.00741 2.8721 0.42226 -11.5314 
49.8358 85.3205 -64.5681 2.59279 2.94105 -3.60334 -2.43922 11.0885 0.386194 -6.67501 -10.4641 1.12928 11.0585 -17.3671 3.57501 -83.0656 43.0604 16.2714 33.7671 -32.9957 -84.0894 -0.208956 -27.4943 0.0707313 107.581 41.0786 -40.8685 -32.1443 -22.3001 68.7499 0.186156 -10.5736 -0.848286 -9.19828 -16.2423 -2.03031 -0.46123 32.3913 -2.09106 3.07938 -13.8472 0.257187 -3.601 -22.5006 1.16431 177.46 81.4314 -177.396 1.22284 -5.85545 -14.701 
49.5543 84.9999 -56.3096 1.91587 3.35651 -1.5398 -2.07676 10.9561 -1.93086 -4.8895 -12.176 0.176195 8.13647 -14.9596 2.44533 -73.7254 47.5624 4.90703 33.6301 -35.3605 -87.6376 -0.135526 -25.4913 0.0299408 111.537 37.4112 -50.1091 -30.2305 -19.5012 64.5311 0.304758 -11.6645 -0.782772 -8.12391 -9.90664 -1.28311 -0.278688 31.2535 -2.44573 3.45531 -17.3011 -2.46755 -2.00248 -35.1092 0.819144 176.055 73.8716 -175.929 -0.721645 -10.0054 -17.6089 
